# AST/ASF file generated using VICON BodyLanguage
# -----------------------------------------------
:version 1.10
:name VICON
:units
  mass 1.0
  length 0.45
  angle deg
:documentation
   .ast/.asf automatically generated from VICON data using
   VICON BodyBuilder and BodyLanguage model FoxedUp or BRILLIANT.MOD
:root
   order TX TY TZ RX RY RZ
   axis XYZ
   position 0 0 0  
   orientation 0 0 0 
:bonedata
  begin
     id 1 
     name lhipjoint
     direction 0.611823 -0.767273 0.19226 
     length 2.47422 
     axis 0 0 0  XYZ
  end
  begin
     id 2 
     name lfemur
     direction 0.34202 -0.939693 0  
     length 7.40835  
     axis 0 0 20  XYZ
    dof rx ry rz
    limits (-160.0 20.0)
           (-70.0 70.0)
           (-60.0 70.0)
  end
  begin
     id 3 
     name ltibia
     direction 0.34202 -0.939693 0   
     length 8.03679   
     axis 0 0 20   XYZ
    dof rx
    limits (-10.0 170.0)
  end
  begin
     id 4 
     name lfoot
     direction 0.0883598 -0.242766 0.966052   
     length 2.06694   
     axis -90 7.62852e-016 20   XYZ
    dof rx rz
    limits (-45.0 90.0)
           (-70.0 20.0)
  end
  begin
     id 5 
     name ltoes
     direction 1.53617e-011 -4.21699e-011 1   
     length 1.03711   
     axis -90 7.62852e-016 20   XYZ
    dof rx
    limits (-90.0 20.0)
  end
  begin
     id 6 
     name rhipjoint
     direction -0.590066 -0.783143 0.196236   
     length 2.42408  
     axis 0 0 0  XYZ 
  end
  begin
     id 7 
     name rfemur
     direction -0.34202 -0.939693 0   
     length 7.88987   
     axis 0 0 -20   XYZ
    dof rx ry rz
    limits (-160.0 20.0)
           (-70.0 70.0)
           (-70.0 60.0)
  end
  begin
     id 8 
     name rtibia
     direction -0.34202 -0.939693 0   
     length 7.87584   
     axis 0 0 -20   XYZ
    dof rx
    limits (-10.0 170.0)
 end
 begin
     id 9 
     name rfoot
     direction -0.130476 -0.358481 0.924374   
     length 2.21745  
     axis -90 -7.62852e-016 -20   XYZ
    dof rx rz
    limits (-45.0 90.0)
           (-20.0 70.0)
  end
  begin
     id 10 
     name rtoes
     direction 8.20695e-005 8.89091e-005 1   
     length 1.09536   
     axis -90 -7.62852e-016 -20   XYZ
    dof rx
    limits (-90.0 20.0)
  end
  begin
     id 11 
     name lowerback
     direction 0.00981224 0.999875 -0.0124197   
     length 1.94808   
     axis 0 0 0   XYZ
    dof rx ry rz
    limits (-20.0 45.0)
           (-30.0 30.0)
           (-30.0 30.0)
  end
  begin
     id 12 
     name upperback
     direction 0.038911 0.999194 0.00981686   
     length 1.94415   
     axis 0 0 0   XYZ
    dof rx ry rz
    limits (-20.0 45.0)
           (-30.0 30.0)
           (-30.0 30.0)
  end
  begin
     id 13 
     name thorax
     direction 0.0330692 0.999334 0.0154389   
     length 1.94117   
     axis 0 0 0   XYZ
    dof rx ry rz
    limits (-20.0 45.0)
           (-30.0 30.0)
           (-30.0 30.0)
  end
  begin
     id 14 
     name lowerneck
     direction -0.0374305 0.99415 0.10132   
     length 1.87291   
     axis 0 0 0   XYZ
    dof rx ry rz
    limits (-20.0 45.0)
           (-30.0 30.0)
           (-30.0 30.0)
  end
  begin
     id 15 
     name upperneck
     direction 0.0120692 0.985979 -0.166431   
     length 1.89248   
     axis 0 0 0   XYZ
    dof rx ry rz
    limits (-20.0 45.0)
           (-30.0 30.0)
           (-30.0 30.0)
  end
  begin
     id 16
     name head
     direction 0.00629908 0.997708 -0.06737  
     length 1.90559  
     axis 0 0 0   XYZ
    dof rx ry rz
    limits (-20.0 45.0)
           (-30.0 30.0)
           (-30.0 30.0)
  end
  begin
     id 17 
     name lclavicle
     direction 0.961536 0.27308 -0.0295863  
     length 3.52757  
     axis 0 0 0   XYZ
    dof ry rz
    limits (-20.0 10.0)
           (0.0 20.0)
  end
  begin
     id 18 
     name lhumerus
     direction 1 -4.48969e-011 2.61153e-029   
     length 5.14845   
     axis 180 -30 -90   XYZ
    dof rx ry rz
    limits (-60.0 90.0)
           (-90.0 90.0)
           (-90.0 90.0)
  end
  begin
     id 19
     name lradius
     direction 1 -4.4896e-011 -3.37549e-027   
     length 3.43674   
     axis 180 -30 -90   XYZ
    dof rx
    limits (-10.0 170.0)
  end
  begin
     id 20
     name lwrist
     direction 1 -4.48969e-011 2.56952e-028   
     length 1.71837   
     axis -5.12785e-016 90 90   XYZ
    dof ry
    limits (-180.0 0.0)
 end
  begin
     id 21 
     name lhand
     direction 1 -4.49094e-011 5.13905e-028   
     length 0.588709   
     axis -3.27915e-016 90 90   XYZ
    dof rx rz
    limits (-90.0 90.0)
           (-45.0 45.0)
  end
  begin
     id 22 
     name lfingers
     direction 1 -4.48821e-011 1.02781e-027   
     length 0.474633   
     axis -6.5583e-016 90 90   XYZ
    dof rx
    limits (0.0 90.0)
  end
  begin
     id 23
     name lthumb
     direction 0.707107 -6.34922e-011 0.707107   
     length 0.68148   
     axis -90 45 2.85299e-015   XYZ
    dof rx rz
    limits (-45.0 45.0)
           (-45.0 45.0)
  end
  begin
     id 24 
     name rclavicle
     direction -0.940964 0.333844 -0.0559866   
     length 3.55948  
     axis 0 0 0   XYZ 
    dof ry rz
    limits (-10.0 20.0)
           (-20.0 0.0)
  end
  begin
     id 25 
     name rhumerus
     direction -1 -4.48973e-011 3.15259e-027  
     length 5.42185   
     axis 180 30 90   XYZ
    dof rx ry rz
    limits (-90.0 60.0)
           (-90.0 90.0)
           (-90.0 90.0)
  end
  begin
     id 26 
     name rradius
     direction -1 -4.48954e-011 -2.56271e-027   
     length 3.51317   
     axis 180 30 90   XYZ
    dof rx
    limits (-10.0 170.0)
  end
  begin
     id 27 
     name rwrist
     direction -1 -4.48943e-011 2.56952e-028   
     length 1.75658   
     axis -5.12785e-016 -90 -90   XYZ
    dof ry
    limits (-180.0 0.0)
  end
  begin
     id 28
     name rhand
     direction -1 -4.4912e-011 5.13905e-028   
     length 0.663187   
     axis -3.27915e-016 -90 -90   XYZ
    dof rx rz
    limits (-90.0 90.0)
           (-45.0 45.0)
  end
  begin
     id 29
     name rfingers
     direction -1 -4.48914e-011 1.02781e-027   
     length 0.534679   
     axis -6.5583e-016 -90 -90   XYZ
    dof rx
    limits (0.0 90.0)
  end
  begin
     id 30
     name rthumb
     direction -0.707107 -6.35033e-011 0.707107   
     length 0.767695   
     axis -90 -45 -2.85299e-015   XYZ
    dof rx rz
    limits (-45.0 45.0)
           (-45.0 45.0)
  end
:hierarchy
  begin
    root lhipjoint rhipjoint lowerback
    lhipjoint lfemur
    lfemur ltibia
    ltibia lfoot
    lfoot ltoes
    rhipjoint rfemur
    rfemur rtibia
    rtibia rfoot
    rfoot rtoes
    lowerback upperback
    upperback thorax
    thorax lowerneck lclavicle rclavicle
    lowerneck upperneck
    upperneck head
    lclavicle lhumerus
    lhumerus lradius
    lradius lwrist
    lwrist lhand lthumb
    lhand lfingers
    rclavicle rhumerus
    rhumerus rradius
    rradius rwrist
    rwrist rhand rthumb
    rhand rfingers
  end

#!OML:ASF F:\VICON\USERDATA\INSTALL\Justin_a\Justin_a.ASF
:FULLY-SPECIFIED
:DEGREES
969
root -2.85401 23.8948 -5.16175 -621.503 -87.4883 636.767
lowerback 5.56177 0.625344 1.82589
upperback 0.331816 0.987516 4.0474
thorax -2.81932 0.458988 3.07847
lowerneck -13.215 -0.90651 -4.55333
upperneck 38.6337 -1.74143 -0.215342
head 15.989 -1.94594 0.274874
rclavicle -1.19271e-014 -4.13472e-014
rhumerus -30.0709 -10.5721 -77.3639
rradius 38.5765
rwrist -2.22313
rhand -30.6872 17.034
rfingers 7.12502
rthumb -3.98107 -12.9086
lclavicle -1.19271e-014 -4.13472e-014
lhumerus -34.3666 4.99572 86.4842
lradius 39.0458
lwrist 7.81734
lhand -19.3757 23.4285
lfingers 7.12502
lthumb 6.94252 53.2947
rfemur -45.0059 1.73242 29.949
rtibia 59.1847
rfoot -30.3843 1.53213
rtoes 15.9977
lfemur -42.9426 6.3769 -18.5756
ltibia 80.4954
lfoot -0.808605 -1.77943
ltoes -7.09015
970
root -2.91581 23.971 -5.17431 -622.731 -87.4404 637.924
lowerback 5.52779 0.661608 1.8494
upperback 0.217795 1.04223 4.11578
thorax -2.92133 0.486309 3.13244
lowerneck -13.3834 -0.887024 -4.5145
upperneck 39.3603 -1.67112 -0.541187
head 16.4071 -1.98655 0.120175
rclavicle -6.75868e-015 -1.66979e-014
rhumerus -30.1649 -10.6685 -77.2349
rradius 38.5114
rwrist -2.02128
rhand -31.2013 17.051
rfingers 7.12502
rthumb -4.47754 -12.8817
lclavicle -6.75868e-015 -1.66979e-014
lhumerus -34.5134 5.13201 86.4532
lradius 39.0177
lwrist 7.77399
lhand -19.0647 23.327
lfingers 7.12502
lthumb 7.24266 53.1831
rfemur -44.1164 1.6491 29.9751
rtibia 58.1449
rfoot -30.0979 1.93485
rtoes 17.0401
lfemur -44.2409 6.61535 -18.4899
ltibia 82.9726
lfoot -1.80042 -1.50557
ltoes -7.05864
971
root -2.97838 24.0411 -5.18675 -625.083 -87.4749 640.115
lowerback 5.4609 0.716383 1.85188
upperback 0.181122 1.11469 4.11622
thorax -2.92468 0.522733 3.12614
lowerneck -12.6957 -0.924105 -4.84311
upperneck 39.0005 -1.82502 -0.11587
head 16.0608 -2.03453 0.3527
rclavicle 1.15295e-014 2.78299e-014
rhumerus -30.1746 -11.0054 -77.1238
rradius 38.4059
rwrist -1.87812
rhand -31.3986 17.0518
rfingers 7.12502
rthumb -4.66808 -12.8767
lclavicle 1.15295e-014 2.78299e-014
lhumerus -34.5496 4.93528 86.5246
lradius 38.9204
lwrist 8.00201
lhand -19.5363 23.338
lfingers 7.12502
lthumb 6.78748 53.2092
rfemur -43.1628 1.45466 29.9227
rtibia 57.1249
rfoot -29.8869 2.43831
rtoes 17.9414
lfemur -45.3826 6.78737 -18.4572
ltibia 85.3163
lfoot -2.76686 -1.43814
ltoes -4.76866
972
root -3.04619 24.1096 -5.19726 -625.564 -87.5312 640.371
lowerback 5.41678 0.816693 1.87733
upperback 0.172963 1.24841 4.0172
thorax -2.91098 0.589603 2.99831
lowerneck -12.505 -0.997187 -4.53232
upperneck 39.209 -1.98336 -0.357799
head 16.1194 -2.09898 0.162714
rclavicle 1.78906e-014 2.14687e-014
rhumerus -30.2695 -11.2509 -77.0363
rradius 38.4587
rwrist -2.02835
rhand -31.2391 17.069
rfingers 7.12502
rthumb -4.51405 -12.8629
lclavicle 1.78906e-014 2.14687e-014
lhumerus -34.5777 4.80124 86.4568
lradius 38.782
lwrist 7.92959
lhand -19.6715 23.3485
lfingers 7.12502
lthumb 6.65694 53.2239
rfemur -42.1044 1.27207 29.9042
rtibia 56.103
rfoot -29.7204 2.11982
rtoes 15.9229
lfemur -46.3674 6.96328 -18.4469
ltibia 87.4771
lfoot -3.63337 -1.23975
ltoes -3.50699
973
root -3.11215 24.1735 -5.20512 -624.835 -87.5289 639.467
lowerback 5.36657 0.891984 1.82009
upperback 0.148014 1.34485 4.08945
thorax -2.91556 0.638389 3.09866
lowerneck -12.3477 -1.10131 -4.55383
upperneck 39.2929 -2.06977 -0.603876
head 16.1258 -2.17811 0.0441033
rclavicle -4.77083e-015 -4.77083e-015
rhumerus -30.3141 -11.0918 -76.8146
rradius 38.5111
rwrist -2.20241
rhand -30.9925 17.0499
rfingers 7.12502
rthumb -4.27591 -12.8869
lclavicle -4.77083e-015 -4.77083e-015
lhumerus -34.7571 4.99143 86.5401
lradius 38.7835
lwrist 7.77207
lhand -19.4206 23.2015
lfingers 7.12502
lthumb 6.89912 53.0691
rfemur -41.1131 1.08266 29.9589
rtibia 55.0863
rfoot -29.4629 1.81611
rtoes 13.5054
lfemur -47.4225 7.1382 -18.3864
ltibia 89.5016
lfoot -4.39362 -1.03508
ltoes -1.60041
974
root -3.17892 24.2404 -5.21285 -625.144 -87.6183 639.533
lowerback 5.37232 0.927292 1.67886
upperback 0.158774 1.38396 4.11816
thorax -2.91346 0.660076 3.20505
lowerneck -11.4539 -1.30929 -4.16489
upperneck 38.5426 -2.20031 -1.41078
head 15.5098 -2.26944 -0.362373
rclavicle 5.1684e-015 1.66979e-014
rhumerus -30.2709 -11.1185 -76.6879
rradius 38.4753
rwrist -2.02656
rhand -30.8431 17.0617
rfingers 7.12502
rthumb -4.13162 -12.8779
lclavicle 5.1684e-015 1.66979e-014
lhumerus -34.8824 5.23764 86.4962
lradius 38.7558
lwrist 7.62361
lhand -19.3201 23.1013
lfingers 7.12502
lthumb 6.9962 52.9657
rfemur -40.0697 0.752231 29.9021
rtibia 54.0883
rfoot -29.1674 1.95771
rtoes 12.623
lfemur -48.3541 7.2433 -18.429
ltibia 91.3106
lfoot -5.05981 -0.43864
ltoes -1.18601
975
root -3.25313 24.3049 -5.22069 -624.006 -87.6373 638.133
lowerback 5.28969 0.959716 1.6736
upperback 0.210268 1.42061 4.11916
thorax -2.8156 0.67805 3.20725
lowerneck -11.8427 -1.06245 -4.57471
upperneck 39.3341 -2.03127 -0.700408
head 16.0217 -2.18965 0.0168462
rclavicle 8.34896e-015 1.35174e-014
rhumerus -30.2099 -11.0817 -76.6863
rradius 38.4522
rwrist -1.87818
rhand -30.8568 16.9614
rfingers 7.12502
rthumb -4.14481 -12.978
lclavicle 8.34896e-015 1.35174e-014
lhumerus -34.9521 5.56803 86.3218
lradius 38.6851
lwrist 7.53681
lhand -19.3526 23.0254
lfingers 7.12502
lthumb 6.96479 52.8908
rfemur -39.0029 0.526192 29.8846
rtibia 53.1128
rfoot -28.9783 2.44928
rtoes 13.1688
lfemur -49.1872 7.43646 -18.4335
ltibia 92.9401
lfoot -5.6229 -0.29796
ltoes -0.461331
976
root -3.3303 24.3676 -5.22309 -622.858 -87.6666 636.806
lowerback 5.06721 1.01642 1.72616
upperback 0.256962 1.48703 4.12317
thorax -2.64415 0.710091 3.17972
lowerneck -11.8453 -1.00276 -4.82497
upperneck 39.6054 -2.04681 -0.325105
head 16.1735 -2.19376 0.216181
rclavicle -1.23246e-014 -2.06736e-014
rhumerus -30.2091 -10.8907 -76.6082
rradius 38.5368
rwrist -1.98977
rhand -31.0835 17.0247
rfingers 7.12502
rthumb -4.36375 -12.9103
lclavicle -1.23246e-014 -2.06736e-014
lhumerus -35.0141 6.14359 86.2115
lradius 38.6465
lwrist 7.11046
lhand -19.1811 22.9338
lfingers 7.12502
lthumb 7.13036 52.7937
rfemur -38.0501 0.373209 29.8094
rtibia 52.1908
rfoot -28.7709 2.78822
rtoes 13.6808
lfemur -50.0496 7.54555 -18.514
ltibia 94.3621
lfoot -6.11647 -0.971962
ltoes -0.401813
977
root -3.40206 24.4248 -5.22792 -620.485 -87.5771 634.219
lowerback 5.03534 1.14908 1.70273
upperback 0.250603 1.66121 4.24803
thorax -2.645 0.796431 3.3106
lowerneck -11.7089 -1.10159 -4.67292
upperneck 39.7566 -2.10794 -0.760567
head 16.2149 -2.26416 -0.0139947
rclavicle 9.93923e-015 7.95139e-015
rhumerus -30.2918 -10.7025 -76.3303
rradius 38.7669
rwrist -2.38975
rhand -31.0052 16.6687
rfingers 7.12502
rthumb -4.28816 -13.2679
lclavicle 9.93923e-015 7.95139e-015
lhumerus -35.1182 6.85851 86.177
lradius 38.5186
lwrist 6.51005
lhand -18.8856 22.9
lfingers 7.12502
lthumb 7.41554 52.75
rfemur -37.0642 0.315153 29.8823
rtibia 51.3025
rfoot -28.6172 3.04413
rtoes 14.3688
lfemur -50.8607 7.77775 -18.4089
ltibia 95.6546
lfoot -6.71299 -1.29627
ltoes -0.546976
978
root -3.4706 24.4765 -5.231 -622.511 -87.6434 636.082
lowerback 5.02188 1.1524 1.58444
upperback 0.203441 1.66181 4.32282
thorax -2.69199 0.798618 3.45524
lowerneck -10.8592 -1.26736 -4.58127
upperneck 39.1677 -2.23105 -1.23985
head 15.6969 -2.35644 -0.230732
rclavicle 1.55052e-014 4.77083e-015
rhumerus -30.3181 -10.7751 -76.1224
rradius 38.8768
rwrist -2.28954
rhand -31.2716 16.5844
rfingers 7.12502
rthumb -4.54537 -13.3468
lclavicle 1.55052e-014 4.77083e-015
lhumerus -35.2578 7.28249 86.1142
lradius 38.3585
lwrist 6.19518
lhand -18.8903 22.7512
lfingers 7.12502
lthumb 7.41105 52.6014
rfemur -36.2344 0.0307901 29.8004
rtibia 50.4986
rfoot -28.4212 3.2848
rtoes 15.1465
lfemur -51.7845 7.68418 -18.4726
ltibia 96.8318
lfoot -7.18059 0.234466
ltoes -2.03561
979
root -3.54558 24.5218 -5.23581 -618.345 -87.6289 631.727
lowerback 4.92551 1.23008 1.62964
upperback 0.209989 1.76318 4.29794
thorax -2.63391 0.848532 3.39793
lowerneck -10.4168 -1.30671 -4.47359
upperneck 38.935 -2.27721 -1.41522
head 15.4686 -2.38161 -0.318788
rclavicle -4.37326e-015 1.59028e-015
rhumerus -30.3642 -10.7695 -76.1642
rradius 38.991
rwrist -2.53578
rhand -31.8484 16.7457
rfingers 7.12502
rthumb -5.10232 -13.1729
lclavicle -4.37326e-015 1.59028e-015
lhumerus -35.3352 7.23892 85.9804
lradius 38.1785
lwrist 6.11795
lhand -18.7798 22.6683
lfingers 7.12502
lthumb 7.51769 52.5147
rfemur -35.3515 -0.108704 29.8446
rtibia 49.751
rfoot -28.2707 3.28683
rtoes 14.5431
lfemur -52.554 7.87257 -18.4127
ltibia 97.8631
lfoot -7.73174 0.0175144
ltoes 0.0207133
980
root -3.607 24.5525 -5.24617 -619.024 -87.4489 632.335
lowerback 4.85452 1.26526 1.74988
upperback 0.145979 1.8162 4.3674
thorax -2.6613 0.873131 3.3996
lowerneck -10.2102 -1.29743 -4.34678
upperneck 38.9779 -2.28897 -1.51481
head 15.4368 -2.38709 -0.383848
rclavicle -1.98785e-015 -2.70347e-014
rhumerus -30.443 -10.607 -76.1388
rradius 39.1419
rwrist -2.9922
rhand -32.0095 17.2598
rfingers 7.12502
rthumb -5.25794 -12.655
lclavicle -1.98785e-015 -2.70347e-014
lhumerus -35.5096 7.08401 85.9585
lradius 38.1943
lwrist 6.35935
lhand -18.5349 22.8537
lfingers 7.12502
lthumb 7.75412 52.6915
rfemur -34.71 -0.173386 30.077
rtibia 49.105
rfoot -28.0886 3.26104
rtoes 14.3753
lfemur -53.5801 8.02286 -18.1918
ltibia 98.793
lfoot -8.09438 -2.08196
ltoes 2.72562
981
root -3.66966 24.5806 -5.25511 -618.867 -87.4049 632.063
lowerback 4.7396 1.27767 1.73073
upperback 0.169938 1.825 4.45096
thorax -2.57591 0.877115 3.49916
lowerneck -10.1886 -1.29217 -4.45897
upperneck 39.0897 -2.26603 -1.52265
head 15.4908 -2.40058 -0.367156
rclavicle -1.11319e-014 3.65764e-014
rhumerus -30.3472 -10.4085 -76.011
rradius 39.1865
rwrist -3.30064
rhand -31.7441 17.7555
rfingers 7.12502
rthumb -5.0016 -12.1655
lclavicle -1.11319e-014 3.65764e-014
lhumerus -35.5979 7.06363 86.0063
lradius 38.1941
lwrist 6.628
lhand -18.6863 23.0555
lfingers 7.12502
lthumb 7.60797 52.8987
rfemur -34.0583 -0.29698 30.142
rtibia 48.5499
rfoot -27.9819 3.51123
rtoes 14.9289
lfemur -54.4608 8.10235 -18.1489
ltibia 99.5059
lfoot -8.6659 -1.84394
ltoes 0.565133
982
root -3.73715 24.6131 -5.26198 -618.05 -87.4229 631.079
lowerback 4.68602 1.29879 1.72353
upperback 0.164207 1.85086 4.44807
thorax -2.55315 0.890242 3.49932
lowerneck -10.0138 -1.29395 -4.49864
upperneck 39.1571 -2.3 -1.49352
head 15.4851 -2.42338 -0.352703
rclavicle -6.75868e-015 -3.18055e-015
rhumerus -30.3858 -10.2171 -76.0288
rradius 39.2585
rwrist -3.72689
rhand -31.8061 18.2594
rfingers 7.12502
rthumb -5.06146 -11.6602
lclavicle -6.75868e-015 -3.18055e-015
lhumerus -35.7173 7.1337 85.882
lradius 38.0283
lwrist 6.55446
lhand -18.6989 22.9576
lfingers 7.12502
lthumb 7.59574 52.8012
rfemur -33.3808 -0.382627 30.1293
rtibia 48.1205
rfoot -27.9068 3.58822
rtoes 15.0435
lfemur -55.1853 8.03162 -18.1222
ltibia 100.021
lfoot -9.18485 -2.25771
ltoes 1.62528
983
root -3.79969 24.6356 -5.26513 -616.982 -87.4634 629.827
lowerback 4.68382 1.32293 1.69793
upperback 0.209379 1.87926 4.43505
thorax -2.50705 0.904519 3.49853
lowerneck -9.93122 -1.28543 -4.51809
upperneck 39.2088 -2.31669 -1.44536
head 15.4928 -2.43058 -0.331712
rclavicle -2.78299e-015 1.43125e-014
rhumerus -30.218 -10.1344 -76.0145
rradius 39.2717
rwrist -3.67772
rhand -31.9828 18.0239
rfingers 7.12502
rthumb -5.23215 -11.8915
lclavicle -2.78299e-015 1.43125e-014
lhumerus -35.7698 7.1778 85.787
lradius 37.9499
lwrist 6.59322
lhand -18.5263 22.8662
lfingers 7.12502
lthumb 7.76237 52.7037
rfemur -32.7839 -0.499446 30.0889
rtibia 47.7966
rfoot -27.844 3.67521
rtoes 14.9792
lfemur -55.9278 7.92451 -18.1354
ltibia 100.411
lfoot -9.50813 -1.96813
ltoes 0.968563
